<svg width="1200" height="706" viewBox="0 0 1200 706" fill="none" xmlns="http://www.w3.org/2000/svg">
<g opacity="0.4">
<path opacity="0.44" d="M1116.8 162.104L1198.84 241.981L527.624 703.327L445.588 623.441L1116.8 162.104Z" fill="url(#paint0_radial_2437_40782)"/>
<path opacity="0.44" d="M539.714 185.874L607.158 251.542L65.9847 623.504L-1.45892 557.844L539.714 185.874Z" fill="url(#paint1_radial_2437_40782)"/>
<path opacity="0.44" d="M987.544 452.183L1013.85 477.796L756.674 654.555L730.37 628.942L987.544 452.183Z" fill="url(#paint2_radial_2437_40782)"/>
<path opacity="0.44" d="M836.4 54.1429L888.41 104.79L577.873 318.222L525.874 267.584L836.4 54.1429Z" fill="url(#paint3_radial_2437_40782)" fill-opacity="0.5"/>
<path opacity="0.44" d="M721.885 238.963L780.886 296.411L353.853 589.933L294.852 532.485L721.885 238.963Z" fill="url(#paint4_radial_2437_40782)"/>
<path opacity="0.44" d="M1087.17 38.9942L1164.13 113.948L772.028 383.45L695.059 308.505L1087.17 38.9942Z" fill="url(#paint5_radial_2437_40782)"/>
<path opacity="0.44" d="M534.707 -48.4362L563.387 -20.5039L328.694 140.809L300.003 112.877L534.707 -48.4362Z" fill="url(#paint6_radial_2437_40782)"/>
<path opacity="0.44" d="M576.956 47.8452L621.155 90.8858L259.496 339.47L215.287 296.43L576.956 47.8452Z" fill="url(#paint7_radial_2437_40782)" fill-opacity="0.5"/>
</g>
<defs>
<radialGradient id="paint0_radial_2437_40782" cx="0" cy="0" r="1" gradientUnits="userSpaceOnUse" gradientTransform="translate(862.734 477.49) rotate(-135.76) scale(67.3169 439.066)">
<stop/>
<stop offset="1" stop-opacity="0"/>
</radialGradient>
<radialGradient id="paint1_radial_2437_40782" cx="0" cy="0" r="1" gradientUnits="userSpaceOnUse" gradientTransform="translate(336.211 441.465) rotate(-135.769) scale(55.3445 353.991)">
<stop/>
<stop offset="1" stop-opacity="0"/>
</radialGradient>
<radialGradient id="paint2_radial_2437_40782" cx="0" cy="0" r="1" gradientUnits="userSpaceOnUse" gradientTransform="translate(884.908 567.838) rotate(-135.749) scale(21.5788 168.25)">
<stop/>
<stop offset="1" stop-opacity="0"/>
</radialGradient>
<radialGradient id="paint3_radial_2437_40782" cx="0" cy="0" r="1" gradientUnits="userSpaceOnUse" gradientTransform="translate(733.318 214.232) rotate(-135.759) scale(42.6737 203.137)">
<stop/>
<stop offset="1" stop-opacity="0"/>
</radialGradient>
<radialGradient id="paint4_radial_2437_40782" cx="0" cy="0" r="1" gradientUnits="userSpaceOnUse" gradientTransform="translate(567.277 446.493) rotate(-135.757) scale(48.4123 279.353)">
<stop/>
<stop offset="1" stop-opacity="0"/>
</radialGradient>
<radialGradient id="paint5_radial_2437_40782" cx="0" cy="0" r="1" gradientUnits="userSpaceOnUse" gradientTransform="translate(968.72 252.48) rotate(-135.759) scale(63.1572 256.494)">
<stop/>
<stop offset="1" stop-opacity="0"/>
</radialGradient>
<radialGradient id="paint6_radial_2437_40782" cx="0" cy="0" r="1" gradientUnits="userSpaceOnUse" gradientTransform="translate(445.888 61.8364) rotate(-135.76) scale(23.5387 153.528)">
<stop/>
<stop offset="1" stop-opacity="0"/>
</radialGradient>
<radialGradient id="paint7_radial_2437_40782" cx="0" cy="0" r="1" gradientUnits="userSpaceOnUse" gradientTransform="translate(440.068 217.783) rotate(-135.76) scale(36.272 236.579)">
<stop/>
<stop offset="1" stop-opacity="0"/>
</radialGradient>
</defs>
</svg>
